# xmcd
#
# Track frame offsets:
# 150
# 16318
# 33010
# 53115
# 71351
# 91580
# 112231
# 127718
# 144283
# 163670
#
# Disc length: 2419 seconds
#
#
# Revision: 0
# Processed by: cddbd v1.5.1PL2 Copyright (c) Steve Scherf et al.
# Submitted via: FreeRIP 2.943 
#
DISCID=7209710a
DTITLE=鄭智仁 - 台灣之愛（第一集）
DYEAR=2002
DGENRE=Other
TTITLE0=火金姑叼位去
TTITLE1=太陽
TTITLE2=走街仔仙
TTITLE3=天總是攏會光
TTITLE4=阿爸的風吹
TTITLE5=月娘光光
TTITLE6=台灣百合
TTITLE7=天頂的星
TTITLE8=獵鳶
TTITLE9=福爾摩沙頌
EXTD=
EXTT0=
EXTT1=
EXTT2=
EXTT3=
EXTT4=
EXTT5=
EXTT6=
EXTT7=
EXTT8=
EXTT9=
PLAYORDER=
